<?xml version="1.0" encoding="UTF-8" standalone="no"?>
<!-- Created with Inkscape (http://www.inkscape.org/) -->

<svg
   xmlns:dc="http://purl.org/dc/elements/1.1/"
   xmlns:cc="http://creativecommons.org/ns#"
   xmlns:rdf="http://www.w3.org/1999/02/22-rdf-syntax-ns#"
   xmlns:svg="http://www.w3.org/2000/svg"
   xmlns="http://www.w3.org/2000/svg"
   xmlns:sodipodi="http://sodipodi.sourceforge.net/DTD/sodipodi-0.dtd"
   xmlns:inkscape="http://www.inkscape.org/namespaces/inkscape"
   width="1985.4039"
   height="393.0885"
   id="svg2"
   version="1.1"
   inkscape:version="0.91 r13725"
   sodipodi:docname="Mr. Robot Logo.svg">
  <defs
     id="defs4" />
  <sodipodi:namedview
     id="base"
     pagecolor="#ffffff"
     bordercolor="#666666"
     borderopacity="1.0"
     inkscape:pageopacity="0.0"
     inkscape:pageshadow="2"
     inkscape:zoom="0.70710678"
     inkscape:cx="435.19096"
     inkscape:cy="446.901"
     inkscape:document-units="px"
     inkscape:current-layer="layer1"
     showgrid="false"
     fit-margin-top="50"
     fit-margin-left="50"
     fit-margin-right="50"
     fit-margin-bottom="50"
     showguides="true"
     inkscape:guide-bbox="true"
     inkscape:window-width="1920"
     inkscape:window-height="1017"
     inkscape:window-x="-8"
     inkscape:window-y="-8"
     inkscape:window-maximized="1" />
  <metadata
     id="metadata7">
    <rdf:RDF>
      <cc:Work
         rdf:about="">
        <dc:format>image/svg+xml</dc:format>
        <dc:type
           rdf:resource="http://purl.org/dc/dcmitype/StillImage" />
        <dc:title></dc:title>
      </cc:Work>
    </rdf:RDF>
  </metadata>
  <g
     inkscape:label="Calque 1"
     inkscape:groupmode="layer"
     id="layer1"
     transform="translate(2067.7074,632.64511)">
    <g
       id="g3083"
       transform="translate(16.162441,1371.7872)" />
    <path
       style="fill:#df2d2f"
       d="m -2017.4105,-290.9079 c -0.2719,-0.71428 -0.3762,-66.53201 -0.2319,-146.26171 l 0.2624,-144.963 32.1572,-0.287 c 36.3785,-0.3247 42.2951,0.289 53.21,5.5198 l 7.3758,3.5347 6.7827,6.905 6.7827,6.9048 11.4874,22.7162 c 6.5511,12.9546 12.005,22.5696 12.6918,22.3749 0.6623,-0.1878 5.798,-9.5606 11.4128,-20.8286 5.6148,-11.2679 12.2674,-23.1513 14.7835,-26.4075 8.0835,-10.4607 20.1585,-17.7505 33.04,-19.9464 3.7542,-0.6399 19.2233,-0.9533 38.4398,-0.7785 l 32.1572,0.2926 0,145.9839 0,145.98385 -19.3964,0 -19.3966,0 -0.5104,-125.56655 -0.5104,-125.5665 -9.6983,0 -9.6981,0 -4.5939,2.386 c -5.5935,2.9051 -10.6879,7.6328 -13.3799,12.4165 -1.1059,1.9652 -13.1861,28.1503 -26.845,58.1894 -13.6588,30.039 -25.369,54.6164 -26.0227,54.6164 -0.6534,0 -11.0646,-21.821 -23.1356,-48.4912 -12.0711,-26.6701 -23.744,-52.2484 -25.9397,-56.8405 -4.5821,-9.5831 -9.5946,-15.5934 -16.2835,-19.5258 l -4.6793,-2.7508 -10.2086,0 -10.2087,0 -0.5104,125.5665 -0.5105,125.56655 -19.1646,0.27783 -19.1646,0.27783 z m 50.0531,-1.02152 c -0.3081,-1.2754 -0.4343,-55.60809 -0.2803,-120.73939 l 0.2802,-118.4205 2.5375,-0.3578 c 4.3387,-0.6117 8.9731,2.7382 11.6643,8.4316 3.1017,6.5617 25.883,55.6525 47.4181,102.1798 18.6447,40.2824 18.0661,39.1566 19.4082,37.7635 0.7901,-0.8201 19.7042,-41.3052 42.4433,-90.8486 2.0616,-4.4918 8.3938,-18.1844 14.0716,-30.4278 l 10.3232,-22.2608 3.0297,-2.5492 3.0294,-2.5493 3.1754,0.3093 3.1752,0.3093 0,120.4622 0,120.46225 -19.6517,0.27726 c -10.8083,0.1525 -19.7095,-0.0772 -19.7801,-0.51044 -0.071,-0.43322 -0.2451,-18.01477 -0.3878,-39.07017 -0.3285,-48.5149 -0.2985,-47.5743 -1.4753,-46.3974 -0.5339,0.5338 -9.2225,19.5622 -19.3079,42.2853 -10.0855,22.72311 -18.7588,41.4552 -19.2739,41.62692 -0.5152,0.17173 -9.1253,-18.19063 -19.1337,-40.80512 -10.0083,-22.6146 -18.6995,-41.7627 -19.3138,-42.5512 l -1.1171,-1.4339 -0.5104,43.2894 -0.5105,43.28935 -19.6268,0.27718 -19.6266,0.27716 z m 231.705,1.02152 c -0.2724,-0.71428 -0.3767,-43.79231 -0.2319,-95.72881 l 0.2634,-94.4301 68.497,-0.5104 68.4969,-0.5105 1.6876,-1.4012 c 2.0679,-1.7168 2.1298,-3.2185 0.2389,-5.805 l -1.4486,-1.9816 -68.736,-0.5104 -68.7358,-0.5104 -0.2773,-19.6517 -0.2772,-19.6517 1.2981,-0.1489 c 0.7139,-0.082 33.8976,-0.026 73.7413,0.1217 l 72.4431,0.2708 3.8778,1.3681 c 9.5165,3.3577 20.5392,13.9877 25.6152,24.7027 l 3.2513,6.8638 0,11.7399 0,11.74 -3.2513,6.8636 c -5.176,10.9262 -16.0957,21.344 -26.0555,24.8581 l -4.318,1.5235 -51.6253,-0.049 -51.6252,-0.048 -1.7467,1.291 -1.7467,1.291 -0.2553,74.5233 -0.2554,74.52318 -19.1646,0.27783 -19.1646,0.27783 -0.4952,-1.2987 z m 50.047,-1.04348 c -0.306,-1.26332 -0.4296,-32.84633 -0.2747,-70.18453 l 0.2816,-67.8876 30.1155,-0.2688 30.1156,-0.2687 34.4542,68.924 c 18.9498,37.9081 34.4542,69.61216 34.4542,70.45328 l 0,1.5293 -19.3978,0 -19.3979,0 -24.2391,-48.49118 c -13.3316,-26.6701 -24.586,-48.4911 -25.0099,-48.4911 -0.4238,0 -0.7707,21.0943 -0.7707,46.8764 0,25.7819 -0.2787,47.60295 -0.6196,48.49109 l -0.6196,1.61479 -19.2678,0 -19.2678,0 z m 140.5834,1.01552 c -2.1785,-2.62487 -69.4629,-138.40045 -68.876,-138.98735 0.336,-0.3359 4.0946,-0.6199 8.3524,-0.631 12.1501,-0.031 21.3743,-1.7241 28.6693,-5.2596 l 6.6357,-3.216 8.2106,-8.2577 8.2108,-8.2577 3.1701,-6.6356 c 3.8861,-8.1341 5.4196,-15.1648 5.4196,-24.8471 0,-15.3078 -5.4043,-27.6297 -17.3105,-39.4675 l -7.7006,-7.6565 -7.0913,-3.573 -7.0913,-3.573 -75.5989,-0.5362 c -41.5794,-0.2948 -75.7236,-0.6394 -75.8761,-0.7657 -0.1524,-0.1261 -0.1524,-9.0727 0,-19.8811 l 0.2773,-19.6517 76.5649,0 76.565,0 8.1091,2.3479 c 27.0069,7.8198 52.7463,31.3556 62.7989,57.4227 4.9609,12.8641 6.4282,21.2688 6.4073,36.7013 l -0.019,13.7816 -2.0754,9.9747 c -1.2933,6.2165 -3.6582,13.2454 -6.2767,18.6551 l -4.2016,8.6803 -6.8498,7.2892 c -8.0486,8.5647 -22.6841,20.9912 -29.2653,24.848 -2.5507,1.4948 -4.6377,3.3413 -4.6377,4.1034 0,0.7622 11.9112,25.1634 26.4693,54.2251 14.5582,29.0616 26.2454,53.20144 25.9718,53.64408 -0.2735,0.44264 -8.9127,0.8048 -19.1981,0.8048 l -18.7009,0 -1.0634,-1.28143 z m 54.5182,-0.33336 c -0.3408,-0.88814 -0.6197,-10.97855 -0.6197,-22.42309 l 0,-20.8085 1.9746,-1.0567 c 1.1638,-0.6229 9.9947,-1.0567 21.5053,-1.0567 11.5108,0 20.3415,0.4338 21.5053,1.0567 l 1.9746,1.0567 0,20.8085 c 0,11.44454 -0.2787,21.53495 -0.6196,22.42309 l -0.6196,1.61479 -22.2407,0 -22.2406,0 z m 164.337,0.73448 c -0.7724,-1.25004 -0.8372,-188.80737 -0.065,-190.05607 0.3823,-0.6186 25.6294,-0.9864 67.6995,-0.9864 l 67.0898,0 2.3269,-1.63 c 2.9639,-2.076 2.5572,-5.5436 -0.8518,-7.2622 l -2.5521,-1.2865 -67.122,-0.016 -67.1219,-0.016 -0.076,-3.3179 c -0.27,-11.8829 0.1718,-35.9116 0.6694,-36.4084 0.3293,-0.3289 33.4321,-0.5335 73.5619,-0.4547 l 72.9633,0.1432 6.7044,3.3006 c 13.3951,6.5945 23.616,20.3839 26.0655,35.1667 l 1.162,7.0123 -1.2023,7.0116 c -2.4905,14.5232 -13.0021,28.4764 -26.0539,34.584 l -6.5865,3.0822 -52.4212,-0.045 c -28.8316,-0.024 -52.9925,0.3233 -53.6906,0.7731 l -1.2694,0.8181 -0.2619,74.9774 -0.262,74.97764 -19.0672,0.27747 c -10.6275,0.15465 -19.3202,-0.13189 -19.6388,-0.64735 z m 50.1276,0.22156 c -0.3862,-0.38633 -0.7024,-32.09413 -0.7024,-70.46163 l 0,-69.7591 30.1141,0 30.114,0 34.7801,69.5539 c 20.3465,40.6897 34.4025,69.93152 33.8705,70.46357 -0.5002,0.50021 -9.3746,0.78395 -19.7207,0.63052 l -18.8113,-0.27894 -24.1034,-47.93335 c -13.2568,-26.3633 -24.6222,-48.1063 -25.2564,-48.3177 l -1.153,-0.3842 -0.2652,48.3176 -0.2653,48.31765 -18.9493,0.27703 c -10.4221,0.15237 -19.2654,-0.039 -19.6517,-0.42535 z m 126.2479,-27.15983 c -35.7906,-71.4405 -55.4897,-111.1648 -55.4897,-111.8981 0,-0.4404 6.5885,-1.2645 14.6409,-1.8309 l 14.6409,-1.03 6.5421,-3.0789 c 29.0241,-13.6597 41.2866,-47.2265 27.5305,-75.3611 -6.4458,-13.1833 -20.6742,-25.9309 -33.0427,-29.6038 l -5.0595,-1.5025 -72.2251,-0.1349 c -39.7239,-0.075 -72.7498,-0.459 -73.3909,-0.8553 l -1.1656,-0.7204 0.2784,-19.3219 0.2784,-19.3218 76.5649,0 76.565,0 6.5766,1.8652 c 15.1663,4.3016 27.4169,11.6934 40.6313,24.5164 13.9224,13.5096 22.2683,27.2511 26.8376,44.1869 l 2.1686,8.0382 0.533,13.2713 0.5329,13.2712 -1.6457,10.0178 c -1.9326,11.7646 -6.2172,23.4752 -11.4616,31.3273 -6.1504,9.2085 -19.9451,21.8008 -38.5845,35.2213 l -2.8377,2.0431 26.6749,53.3995 c 14.671,29.3696 26.4077,53.83159 26.0813,54.35973 -0.3359,0.54357 -8.7608,0.96025 -19.4156,0.96025 l -18.822,0 z m 148.1732,27.11571 c -43.2376,-5.6042 -66.3209,-27.47001 -72.5381,-68.71191 l -1.4627,-9.7023 0,-67.3772 0,-67.3772 1.4627,-9.7025 c 3.1647,-20.9934 9.4417,-34.4012 21.9953,-46.9825 l 7.6664,-7.6835 8.6774,-4.2903 c 17.3034,-8.5554 30.1845,-10.4583 70.79226,-10.4583 l 29.50086,0 10.85017,1.5736 c 43.29678,6.2796 65.43671,30.564 69.56111,76.2983 1.22301,13.5607 1.22301,123.6839 0,137.2446 -4.17932,46.3436 -27.5885,71.30008 -71.98229,76.74039 -8.42093,1.03195 -67.25785,1.37052 -74.52311,0.42882 z m 77.68493,-42.39801 c 8.1314,-3.1428 12.25407,-5.7637 16.93066,-10.7633 5.74186,-6.1387 8.52668,-11.3948 10.52279,-19.8613 l 1.51179,-6.4125 0.0153,-66.0509 0.0153,-66.0509 -1.12816,-5.4097 c -1.78733,-8.5708 -6.45473,-17.3449 -11.9719,-22.5056 -6.16941,-5.7708 -11.39777,-8.4915 -20.27349,-10.55 l -6.87452,-1.5943 -33.21618,0.3629 -33.21622,0.3629 -5.1043,1.8478 c -16.4941,5.9713 -25.3244,17.5717 -27.9959,36.7788 -1.4814,10.6518 -1.4814,122.2535 0,132.9052 2.6625,19.1421 11.2649,30.6071 27.2474,36.3148 l 5.8528,2.09 11.73999,0.6564 c 6.4569,0.361 22.99496,0.3953 36.75114,0.077 l 25.01118,-0.5802 4.1827,-1.6166 z m -66.96587,-7.5252 c -7.135,-0.8466 -15.91286,-3.6629 -19.87716,-6.3773 -5.3957,-3.6944 -10.2939,-10.2868 -12.4823,-16.7993 l -1.7856,-5.3144 -0.3267,-62.7479 -0.3267,-62.7478 1.1054,-7.1249 c 2.5031,-16.1333 10.3324,-25.0955 25.48746,-29.1764 5.9684,-1.6071 47.93486,-2.361 60.28754,-1.0831 l 9.61912,0.9953 6.52507,3.3118 6.52518,3.312 3.48421,4.5632 c 1.91627,2.5097 4.40443,7.593 5.52922,11.2959 l 2.04499,6.7326 -0.2838,67.3556 -0.28369,67.3554 -2.34136,5.7926 c -3.91533,9.6867 -11.25515,15.9359 -22.15944,18.867 l -5.10433,1.3719 -26.03205,0.4209 c -14.3177,0.2315 -27.64,0.2302 -29.60506,0 z m 43.47757,-43.6058 2.46131,-2.8644 0,-49.5335 0,-49.5336 -2.98409,-2.9841 -2.9841,-2.984 -13.28327,0 c -14.10776,0 -17.75036,0.7369 -19.46356,3.938 -0.6974,1.303 -1.0913,19.1667 -1.1369,51.5562 l -0.069,49.5622 1.6627,2.5376 c 2.1514,3.2836 3.4762,3.5068 19.71891,3.3236 l 13.6173,-0.1536 2.46131,-2.8644 z m 123.87906,53.3256 c 0,0 40.25103,-0.061 60.37119,-0.1587 l 57.60432,-0.2801 7.03673,-3.3325 7.03673,-3.3324 8.3955,-8.4075 c 12.74541,-12.7638 17.33789,-23.6019 17.21436,-40.6263 l -0.0633,-8.739 -2.16465,-7.127 c -2.89008,-9.5146 -8.4496,-17.8221 -17.5733,-26.2593 l -7.53379,-6.9668 7.53737,-6.8113 c 9.04048,-8.1697 14.62616,-16.4638 17.62617,-26.1725 l 2.22121,-7.1884 -0.0286,-9.6982 -0.0286,-9.6983 -2.19242,-7.1885 c -1.20594,-3.9536 -3.96882,-9.9257 -6.1398,-13.2713 -5.49859,-8.4735 -16.53374,-18.4616 -24.64177,-22.3036 l -6.70188,-3.1755 -57.97194,-0.5105 -60.00357,-0.012 c 0,0 -0.22693,-27.6738 0,-40.8087 l 58.36947,-0.016 55.85375,0 7.55848,1.4462 c 17.23192,3.2971 33.07709,12.039 47.339,26.1172 14.87627,14.6847 24.04825,32.1066 27.59831,52.4219 l 1.63216,9.3405 -0.58087,11.74 c -0.71298,14.4107 -3.57008,26.4613 -8.87633,37.4379 l -4.03324,8.343 4.06407,8.5013 c 2.23518,4.6757 5.05217,12.1762 6.25995,16.668 l 2.19599,8.167 0.0786,15.8234 0.0776,15.8234 -1.76528,7.006 c -4.71099,18.6974 -13.58631,33.8411 -27.94601,47.6839 -11.05089,10.65312 -29.35634,22.44857 -42.8379,25.83188 l -2.93642,0.73692 c -40.68428,-0.44598 -81.36693,-0.19983 -122.05132,0 z m 289.48094,39.7403 c -10.7635,-1.3672 -21.47963,-4.56848 -31.13641,-9.30147 l -8.67737,-4.25296 -8.19337,-8.20807 -8.19338,-8.208 -4.33581,-8.6773 c -2.38464,-4.7726 -5.57424,-13.2712 -7.08788,-18.886 l -2.75225,-10.2087 -0.34536,-71.971 c -0.41571,-86.6052 -0.0378,-90.9487 9.68302,-111.2239 l 4.62534,-9.6476 8.37549,-8.3567 8.37549,-8.3566 8.65685,-4.1902 c 17.46498,-8.4536 30.26583,-10.3353 70.28226,-10.3312 31.71249,0 43.00327,0.9529 55.96679,4.7081 29.66403,8.5933 46.10579,27.556 52.90976,61.0224 l 1.68321,8.2794 0.28042,63.2937 c 0.30086,67.9031 -0.32115,84.5106 -3.6603,97.733 -8.33477,33.0048 -31.67371,52.25903 -68.87066,56.81739 -10.74634,1.31694 -67.14431,1.29201 -77.58584,-0.0343 z m 78.2438,-41.5373 c 16.91814,-4.6913 27.11231,-16.112 30.54681,-34.2219 0.52768,-2.7823 0.94471,-33.7639 0.9348,-69.4533 l -0.0174,-64.4304 -1.44401,-6.8129 c -1.99426,-9.4097 -6.17104,-17.436 -11.82623,-22.7257 -5.9593,-5.5742 -11.265,-8.3161 -20.02291,-10.3471 l -6.82959,-1.5839 -33.26115,0.3272 -33.26126,0.3271 -5.9198,2.2275 c -16.11999,6.0656 -24.79817,17.7867 -27.3587,36.9522 -0.6404,4.7939 -0.9099,32.1524 -0.70491,71.565 l 0.33188,63.8041 2.16005,6.3439 c 5.38589,15.8182 14.06468,24.0044 29.96018,28.2595 l 5.61476,1.5029 32.17935,0.068 32.17944,0.068 6.73894,-1.8686 z m -68.43419,-8.5832 c -13.2342,-1.7324 -23.09506,-9.1714 -27.89599,-21.0448 l -2.33094,-5.765 0,-68.398 0,-68.398 2.45396,-6.0936 c 1.6144,-4.009 4.26784,-7.9074 7.75603,-11.3957 l 5.30208,-5.3021 7.04652,-2.2731 7.04654,-2.2731 29.98192,0.1651 c 16.49005,0.091 32.03387,0.6251 34.54183,1.1872 10.29298,2.3067 19.14332,9.7268 23.01884,19.2991 l 2.29368,5.6652 0,68.9086 0,68.9084 -1.94996,5.6047 -1.94995,5.6046 -5.8023,5.8022 -5.80224,5.8023 -7.05041,2.0646 -7.0503,2.0644 -26.54253,0.3605 c -14.59839,0.1984 -29.47843,-0.024 -33.06678,-0.4935 z m 46.95516,-42.5829 3.01217,-3.0121 -0.28329,-50.1618 -0.28339,-50.162 -2.94919,-2.5361 -2.94918,-2.5361 -14.75325,0.3282 -14.75336,0.3282 -1.84745,2.2844 c -2.70551,3.3454 -2.9889,9.2881 -2.76411,57.9467 l 0.20275,43.8973 1.34285,2.3545 c 2.04234,3.5811 4.6431,4.1461 19.40819,4.2164 l 13.60499,0.064 z m 184.4275,93.61417 c -0.13353,-0.14038 -0.47807,-45.50517 -0.76564,-100.81057 l -0.52299,-100.5553 -34.70947,-0.5104 -34.70945,-0.5104 -0.2789,-18.8114 c -0.16558,-11.1668 0.12271,-19.2128 0.70951,-19.7996 1.22187,-1.222 105.97041,-1.643 108.54698,-0.4363 l 1.78651,0.8365 0,118.8116 c 0,65.3463 -0.27879,119.53815 -0.61967,120.42629 l -0.61966,1.61479 -19.28733,0 c -10.60792,0 -19.39646,-0.11485 -19.52989,-0.25521 z m 50.82016,-0.69361 c -0.3376,-0.54633 -0.61895,-54.84076 -0.62508,-120.65436 l -0.0112,-119.6609 1.14858,-0.71 c 1.90524,-1.1774 106.9872,-0.5371 108.18355,0.6594 0.66479,0.6647 0.94788,7.9546 0.77126,19.8614 l -0.2789,18.8114 -34.70945,0.5104 -34.70945,0.5104 -0.51044,100.5553 -0.51043,100.55535 -19.06724,0.27747 c -11.57263,0.16841 -19.30856,-0.11297 -19.68117,-0.71586 z m -581.49337,-49.65816 0.0807,-44.6395 -0.0807,-45.6343 113.93083,0 6.99722,2.9346 c 14.06785,5.8999 23.97863,20.5079 26.25567,35.1338 l 1.0666,6.851 -1.0666,6.851 c -0.58659,3.768 -2.45631,9.6738 -4.15483,13.124 -5.12066,10.4017 -17.46436,21.1896 -27.0798,24.1271 l -4.09919,1.2523 -111.8499,0 z m 104.19371,-41.5715 c 1.67259,-0.8461 2.55217,-2.1498 2.55217,-3.7829 0,-1.6332 -0.87958,-2.937 -2.55217,-3.7832 l -2.55217,-1.2911 -34.45423,-0.016 -34.45424,-0.016 0,4.4237 c 0,2.4331 0.30625,4.73 0.68061,5.1044 0.37424,0.3742 15.87865,0.6738 34.45423,0.6655 l 33.77363,-0.016 2.55217,-1.2912 z m -104.19371,-150.1394 c 0,0 74.56633,0.1608 111.8499,0.06 l 4.09919,1.152 c 9.61452,2.702 21.95016,13.6837 27.08348,24.1111 1.70056,3.4542 3.60213,9.36 4.22588,13.1241 l 1.13408,6.8435 -1.11275,6.7151 c -2.49336,15.047 -12.50388,28.4532 -26.32773,35.2587 l -6.97334,3.433 -55.6069,0.011 -58.37181,-0.049 z m 104.19371,49.0737 c 1.67259,-0.8462 2.55217,-2.1499 2.55217,-3.783 0,-1.6312 -0.88153,-2.9404 -2.55217,-3.7905 l -2.55217,-1.2985 -34.19902,0.2475 -34.19902,0.2476 -0.32718,3.415 c -0.17988,1.8781 -0.0796,4.0603 0.22325,4.8491 l 0.55026,1.4342 33.97586,-0.016 33.97585,-0.016 2.55217,-1.2912 z m 356.3809,-60.3223 -1.16634,-1.4055 0.2787,-18.7531 0.27869,-18.7531 115.35801,0 115.35788,0 0.2787,18.7531 0.27869,18.7531 -1.1648,1.4035 -1.16481,1.4035 -113.58403,0 -113.58425,0 -1.16644,-1.4055 z"
       id="path3129"
       inkscape:connector-curvature="0"
       sodipodi:nodetypes="cscsscccsssssscccccccccssssssscccccccccscsssssscccccccscscscsscccccccscccccccccccscsccccsscccccccccccsscccsscccsssccccsccsscccssscccscscccssccsccsssscsccccscssccscccccccscssccccsscsscsscsccccscccscccssscsccccscssscssscsscccccssscccssscscscssscccsscsscssssscsscccssscccsssscssccccscccccssccccscccsscsccccccccscsccsccccccccscccscssccccscccccccssscsscsscccssscccsscccsccsccccsssscssssccsccsscccscsccscccccssccccscccssscccccccccsscccccccccsccscccscccscscsccsccscccscccccscccccssccssccccscccscscccccscscsscccccccccccccccccccccccccccccccc" />
  </g>
</svg>
